<?xml version="1.0" encoding="UTF-8" standalone="no"?>
<!--part of the rodentia icon theme by sixsixfive released under CC0 (https://creativecommons.org/publicdomain/zero/1.0/) on openclipart-->
<svg xmlns="http://www.w3.org/2000/svg" xmlns:xlink="http://www.w3.org/1999/xlink" viewBox="0 0 48 48">
 <defs id="0">
  <linearGradient id="A">
   <stop id="N" stop-color="#fff" stop-opacity="0.8"/>
   <stop id="O" offset="1" stop-color="#fff" stop-opacity="0"/>
  </linearGradient>
  <linearGradient id="B">
   <stop id="P" stop-color="#eeeeec"/>
   <stop id="Q" offset="1" stop-color="#d3d7cf"/>
  </linearGradient>
  <linearGradient id="C">
   <stop id="R" stop-color="#2e3436"/>
   <stop id="S" offset="1" stop-color="#2e3436" stop-opacity="0"/>
  </linearGradient>
  <radialGradient cx="25.712" cy="48.735" r="21.856" id="D" xlink:href="#C" gradientUnits="userSpaceOnUse" gradientTransform="matrix(1,0,0,0.09243698,0,44.229759)"/>
  <radialGradient cx="13.559" cy="12.06" r="16.219" id="E" xlink:href="#B" gradientUnits="userSpaceOnUse" gradientTransform="matrix(0.6174379,2.5604989,-3.7886681,0.9135993,49.367351,-37.86865)"/>
  <linearGradient y1="2.438" x2="0" y2="43.34" id="F" xlink:href="#A" gradientUnits="userSpaceOnUse"/>
  <radialGradient cx="34.13" cy="8.609" r="3.03" id="G" xlink:href="#B" gradientUnits="userSpaceOnUse" gradientTransform="matrix(1.9999999,2.0717464e-7,-2.1678585e-7,2.0927836,-34.124995,-9.2675658)"/>
  <linearGradient x1="34.13" y1="8.75" x2="36.533" y2="6.363" id="H" xlink:href="#A" gradientUnits="userSpaceOnUse"/>
  <filter x="-0.16" y="-0.151" width="1.321" height="1.302" color-interpolation-filters="sRGB" id="I">
   <feGaussianBlur stdDeviation="0.5327" id="T"/>
  </filter>
  <linearGradient id="J">
   <stop id="U" stop-color="#eee"/>
   <stop id="V" offset="1" stop-color="#dcdcdc"/>
  </linearGradient>
  <radialGradient cx="60.05" cy="51.39" r="15.03" id="K" xlink:href="#J" gradientUnits="userSpaceOnUse" gradientTransform="matrix(-1.404511,1.1888571,-1,-1.1813958,199.73811,11.750541)"/>
 </defs>
 <path d="m 47.568058,48.734642 a 21.855595,2.0202651 0 1 1 -43.7111893,0 21.855595,2.0202651 0 1 1 43.7111893,0 z" transform="matrix(1.0944165,0,0,0.9661277,-4.1401442,-2.4030967)" id="1" opacity="0.54" fill="url(#D)"/>
 <path d="M 9.84375,1.367375 C 8.1263501,1.367375 6.75,2.7437253 6.75,4.461125 l 0,37.15625 c 0,1.7174 1.3763496,3.093751 3.09375,3.09375 l 28.3125,0 c 1.7174,0 3.09375,-1.376351 3.09375,-3.09375 l 0,-33.21875 -6.75,-7.03125 -24.65625,0 z" id="2" fill="#888a85"/>
 <path d="m 9.84375,2.25 c -1.1586131,0 -2.0625,0.903887 -2.0625,2.0625 l 0,37.15625 c 0,1.158614 0.9038868,2.062501 2.0625,2.0625 l 28.3125,0 c 1.158613,0 2.0625,-0.903888 2.0625,-2.0625 l 0,-32.78125 L 34.0625,2.25 9.84375,2.25 z" transform="translate(4.4958504e-8,0.148625)" id="3" fill="url(#E)"/>
 <path d="m 9.84375,2.75 c -0.8977312,0 -1.5625,0.6647689 -1.5625,1.5625 l 0,37.15625 c 0,0.897732 0.6647689,1.562501 1.5625,1.5625 l 28.3125,0 c 0.897731,0 1.5625,-0.66477 1.5625,-1.5625 l 0,-32.625 -5.875,-6.09375 -24,0 z" transform="translate(4.4958504e-8,0.148625)" id="4" opacity="0.8" fill="none" stroke="url(#F)" stroke-linejoin="round" stroke-linecap="square"/>
 <path d="m 32.25,2.40625 0,6.875 c 0,0.956611 0.676661,1.593751 1.71875,1.59375 l 6.25,0 0,-1.8125 -6.9375,-6.65625 -1.03125,0 z" id="5" opacity="0.16" fill="#2e3436" filter="url(#I)"/>
 <path d="m 33.125,1.375 0,6.3125 c -2e-6,1.158614 0.903887,2.062501 2.0625,2.0625 l 6.0625,0 0,-1.34375 -6.75,-7.03125 -1.375,0 z" id="6" fill="#888a85"/>
 <path d="m 34.125,2.40625 0,5.28125 c -10e-7,0.6407004 0.421799,1.0625006 1.0625,1.0625 l 5,0 -6.0625,-6.34375 z" id="7" fill="url(#G)"/>
 <path d="m 34.625,3.6875 0,4 c -10e-7,0.3773049 0.185194,0.5625003 0.5625,0.5625 l 3.84375,0 L 34.625,3.6875 z" id="8" opacity="0.8" fill="none" stroke="url(#H)" stroke-linecap="square"/>
 <g transform="translate(-0.3913515,0.6294505)" id="9">
  <path d="m 24.391351,10.410002 c -4.696313,-0.0034 -8.499218,4.05714 -8.502673,8.983956 -1.02e-4,0.131472 -8.56e-4,0.244896 0,0.374333 -1.152221,0.548746 -1.951872,1.709165 -1.951872,3.074866 l 0,9.144384 c 0,1.894335 1.501387,3.422459 3.395722,3.422459 l 14.090908,0 c 1.894335,0 3.422461,-1.528124 3.422461,-3.422459 l 0,-9.144384 c 0,-1.378521 -0.808798,-2.559592 -1.97861,-3.101605 1.25e-4,-0.124451 -9.1e-5,-0.216939 0,-0.347594 0.0035,-4.92542 -3.780718,-8.980674 -8.475936,-8.983956 z m -0.08021,4.090909 c 2.462846,0.0016 4.35984,1.825074 4.358289,4.037432 l 0,0.882354 -8.743316,0 0,-0.882354 c 0.0014,-2.208947 1.923262,-4.039155 4.385027,-4.037432 l 0,0 z" id="L" stroke-width="1.5" fill="#fff"/>
  <path d="m 24.391351,9.4096011 c -4.696313,-0.00339 -8.499218,4.0571399 -8.502673,8.9839559 -1.02e-4,0.131472 -8.56e-4,0.244896 0,0.374333 -1.152221,0.548746 -1.951872,1.709165 -1.951872,3.074866 l 0,9.144384 c 0,1.894335 1.501387,3.422459 3.395722,3.422459 l 14.090908,0 c 1.894335,0 3.422461,-1.528124 3.422461,-3.422459 l 0,-9.144384 c 0,-1.378521 -0.808798,-2.559592 -1.97861,-3.101605 1.25e-4,-0.124451 -9.1e-5,-0.216939 0,-0.347594 0.0035,-4.92542 -3.780718,-8.9806737 -8.475936,-8.9839559 z m -0.08021,4.0909089 c 2.462846,0.0016 4.35984,1.825074 4.358289,4.037432 l 0,0.882354 -8.743316,0 0,-0.882354 c 0.0014,-2.208947 1.923262,-4.039155 4.385027,-4.037432 l 0,0 z" id="M" stroke-width="1.5" fill="#888a85"/>
 </g>
</svg>
